<?xml version="1.0" encoding="UTF-8" standalone="no"?>
<!-- Created with Inkscape (http://www.inkscape.org/) -->

<svg
   width="178"
   height="178"
   viewBox="0 0 178 178"
   version="1.1"
   id="svg5"
   inkscape:version="1.2.2 (b0a8486, 2022-12-01)"
   sodipodi:docname="eternal_poth_and_logo.svg"
   xml:space="preserve"
   inkscape:export-filename="eternal.png"
   inkscape:export-xdpi="408.61142"
   inkscape:export-ydpi="408.61142"
   xmlns:inkscape="http://www.inkscape.org/namespaces/inkscape"
   xmlns:sodipodi="http://sodipodi.sourceforge.net/DTD/sodipodi-0.dtd"
   xmlns="http://www.w3.org/2000/svg"
   xmlns:svg="http://www.w3.org/2000/svg"><sodipodi:namedview
     id="namedview7"
     pagecolor="#ffffff"
     bordercolor="#000000"
     borderopacity="0.25"
     inkscape:showpageshadow="2"
     inkscape:pageopacity="0.0"
     inkscape:pagecheckerboard="false"
     inkscape:deskcolor="#d1d1d1"
     inkscape:document-units="px"
     showgrid="false"
     showguides="true"
     inkscape:zoom="0.79815315"
     inkscape:cx="-3915.9151"
     inkscape:cy="1065.585"
     inkscape:window-width="1342"
     inkscape:window-height="668"
     inkscape:window-x="10"
     inkscape:window-y="48"
     inkscape:window-maximized="0"
     inkscape:current-layer="layer1" /><defs
     id="defs2"><linearGradient
       id="linearGradient6037"
       inkscape:swatch="solid"><stop
         style="stop-color:#ffffff;stop-opacity:1;"
         offset="0"
         id="stop6035" /></linearGradient><linearGradient
       id="linearGradient5003"
       inkscape:swatch="solid"><stop
         style="stop-color:#ffd700;stop-opacity:1;"
         offset="0"
         id="stop5001" /></linearGradient><linearGradient
       id="linearGradient2967"
       inkscape:swatch="gradient"><stop
         style="stop-color:#ffd700;stop-opacity:1;"
         offset="0"
         id="stop2963" /><stop
         style="stop-color:#ffd700;stop-opacity:0;"
         offset="1"
         id="stop2965" /></linearGradient><clipPath
       clipPathUnits="userSpaceOnUse"
       id="clipPath1061"><circle
         style="fill:#ff0000;fill-rule:evenodd;stroke-width:0.999995"
         id="circle1063"
         r="89"
         cy="847.86877"
         cx="-2882.1194"
         clip-path="none" /></clipPath><clipPath
       clipPathUnits="userSpaceOnUse"
       id="clipPath1065"><circle
         style="fill:#ff0000;fill-rule:evenodd;stroke-width:0.999995"
         id="circle1067"
         r="89"
         cy="847.86877"
         cx="-2882.1194"
         clip-path="none" /></clipPath><clipPath
       clipPathUnits="userSpaceOnUse"
       id="clipPath1069"><circle
         style="fill:#ff0000;fill-rule:evenodd;stroke-width:0.999995"
         id="circle1071"
         r="89"
         cy="847.86877"
         cx="-2882.1194"
         clip-path="none" /></clipPath></defs><g
     inkscape:label="Camada 1"
     inkscape:groupmode="layer"
     id="layer1"
     transform="translate(2861.0328,-629.64476)"><g
       id="g1130"
       inkscape:export-filename="./tech_icon.svg"
       inkscape:export-xdpi="408.61142"
       inkscape:export-ydpi="408.61142"><g
         id="g1109"
         transform="translate(-0.51449523,-0.79441441)"><g
           id="g1082"
           transform="translate(110.60115,-128.4296)"><rect
             style="fill:#59503a;fill-opacity:1;fill-rule:evenodd;stroke-width:0.999999"
             id="rect1073"
             width="60.754173"
             height="180"
             x="-2912.4963"
             y="758.86871"
             clip-path="url(#clipPath1069)" /><rect
             style="fill:#d9a521;fill-opacity:1;fill-rule:evenodd;stroke-width:0.999999"
             id="rect1075"
             width="56.478806"
             height="180"
             x="-2968.9751"
             y="758.86871"
             clip-path="url(#clipPath1065)" /><rect
             style="fill:#405294;fill-opacity:1;fill-rule:evenodd;stroke-width:0.999999"
             id="rect1077"
             width="51.554436"
             height="180"
             x="-2853.6538"
             y="758.86871"
             clip-path="url(#clipPath1061)" /></g><rect
           style="fill:#59503a;fill-opacity:1;fill-rule:evenodd;stroke-width:0.999999"
           id="rect751"
           width="60.754173"
           height="180"
           x="-2912.4963"
           y="758.86871"
           clip-path="url(#clipPath1069)"
           transform="translate(110.60115,-128.4296)" /><rect
           style="fill:#d9a521;fill-opacity:1;fill-rule:evenodd;stroke-width:0.999999"
           id="rect753"
           width="56.478806"
           height="180"
           x="-2968.9751"
           y="758.86871"
           clip-path="url(#clipPath1065)"
           transform="translate(110.60115,-128.4296)" /><rect
           style="fill:#405294;fill-opacity:1;fill-rule:evenodd;stroke-width:0.999999"
           id="rect755"
           width="51.554436"
           height="180"
           x="-2853.6538"
           y="758.86871"
           clip-path="url(#clipPath1061)"
           transform="translate(110.60115,-128.4296)" /></g><g
         id="g1115"
         transform="translate(-254.97983,59.1128)"><path
           id="path757"
           style="fill:#000000;stroke-width:0.999999"
           d="m -2533.3888,665.00071 c -1.274,0.14064 -2.1654,1.48999 -3.2012,3.96875 -1.7077,4.08708 -0.7764,7.52786 2.6973,9.96094 1.2571,0.8805 3.6936,1.60156 5.4141,1.60156 3.4733,0 9.4257,-1.81702 9.4257,-2.87695 0,-0.37459 -2.8866,-3.54305 -6.416,-7.04101 -4.0127,-3.97707 -6.2819,-5.79411 -7.9199,-5.61329 z" /><path
           id="path1090"
           style="fill:#000000;stroke-width:0.999999"
           d="m -2479.0529,663.31321 v 8.10938 8.10937 h 6.8653 c 8.7716,0 12.1347,-2.19481 12.1347,-7.91796 0,-5.7095 -2.5756,-7.47264 -11.5879,-7.92774 z" /><path
           id="path1088"
           style="fill:#000000;stroke-width:0.999999"
           d="m -2527.8868,638.53196 c -6.0746,0 -7.6893,3.14973 -4.6387,9.04883 1.8969,3.66814 3.3891,3.71385 6.6621,0.20117 4.984,-5.34902 4.1307,-9.25 -2.0234,-9.25 z m 17.957,0 -0.6817,4.75 c -0.5782,4.02888 -1.5124,5.56467 -6.1601,10.11719 l -5.4805,5.36719 5.3164,5.38086 c 2.9237,2.96045 5.614,5.38281 5.9785,5.38281 0.3644,0 2.1787,-3.37367 4.0332,-7.49805 l 3.3711,-7.5 h 5.75 5.75 v -8 -8 h -8.9375 z m 30.8769,1 v 6.5 6.5 h 7 c 7.8277,0 11,-1.87456 11,-6.5 0,-4.62543 -3.1723,-6.5 -11,-6.5 z m -13.1035,18.5 -2.1074,5.5 c -1.1588,3.025 -3.3659,7.52501 -4.9062,10 l -2.8008,4.5 4.6718,4.75 c 2.5695,2.6125 4.8008,4.75 4.959,4.75 0.1585,0 0.2654,-6.6375 0.2364,-14.75 z" /><path
           id="path1086"
           style="fill:#000000;stroke-width:0.999999"
           d="m -2428.0529,659.53196 a 89,89 0 0 0 -0.1054,-4.36718 89,89 0 0 0 -0.3223,-4.35743 89,89 0 0 0 -0.5352,-4.33593 89,89 0 0 0 -0.746,-4.30274 89,89 0 0 0 -0.9571,-4.26367 89,89 0 0 0 -1.166,-4.20898 89,89 0 0 0 -1.3691,-4.14844 89,89 0 0 0 -1.5723,-4.07617 89,89 0 0 0 -1.7715,-3.99219 89,89 0 0 0 -1.9629,-3.90234 89,89 0 0 0 -2.1543,-3.80079 89,89 0 0 0 -2.3359,-3.6914 89,89 0 0 0 -2.5156,-3.57031 89,89 0 0 0 -2.6875,-3.44336 89,89 0 0 0 -2.8535,-3.3086 89,89 0 0 0 -3.0118,-3.16406 89,89 0 0 0 -3.164,-3.01172 89,89 0 0 0 -3.3086,-2.85351 89,89 0 0 0 -3.4434,-2.6875 89,89 0 0 0 -3.5703,-2.51563 89,89 0 0 0 -3.6914,-2.33594 89,89 0 0 0 -3.8008,-2.15429 89,89 0 0 0 -3.9023,-1.96289 89,89 0 0 0 -3.9922,-1.77149 89,89 0 0 0 -4.0762,-1.57226 89,89 0 0 0 -4.1484,-1.36914 89,89 0 0 0 -4.209,-1.16602 89,89 0 0 0 -4.2637,-0.95703 89,89 0 0 0 -4.3027,-0.7461 89,89 0 0 0 -4.336,-0.53515 89,89 0 0 0 -4.3574,-0.32227 89,89 0 0 0 -4.3672,-0.10547 89,89 0 0 0 -12.666,0.9043 89,89 0 0 0 -12.4082,2.69922 89,89 0 0 0 -11.8965,4.4375 89,89 0 0 0 -11.1445,6.08594 89,89 0 0 0 -10.166,7.61133 89,89 0 0 0 -8.9805,8.97851 89,89 0 0 0 -7.6094,10.16602 89,89 0 0 0 -6.0859,11.14453 89,89 0 0 0 -4.4375,11.89844 89,89 0 0 0 -2.6992,12.4082 89,89 0 0 0 -0.9063,12.66601 89,89 0 0 0 0.9063,12.66602 89,89 0 0 0 2.6992,12.4082 89,89 0 0 0 4.4375,11.89649 89,89 0 0 0 6.0859,11.14453 89,89 0 0 0 7.6094,10.16601 89,89 0 0 0 8.9805,8.98047 89,89 0 0 0 10.166,7.60938 89,89 0 0 0 11.1445,6.08594 89,89 0 0 0 11.8965,4.4375 89,89 0 0 0 12.4082,2.69921 89,89 0 0 0 12.666,0.90625 89,89 0 0 0 12.6661,-0.90625 89,89 0 0 0 12.4082,-2.69921 89,89 0 0 0 11.8984,-4.4375 89,89 0 0 0 11.1445,-6.08594 89,89 0 0 0 10.166,-7.60938 89,89 0 0 0 8.9786,-8.98047 89,89 0 0 0 7.6113,-10.16601 89,89 0 0 0 6.0859,-11.14453 89,89 0 0 0 4.4375,-11.89649 89,89 0 0 0 2.6992,-12.4082 89,89 0 0 0 0.9043,-12.66602 z m -162,-32.15625 62.25,0.64649 c 34.4313,0.35791 64.6024,1.09506 67.5118,1.65039 9.2507,1.76573 14.2934,8.71845 12.6562,17.44531 -0.7613,4.05797 -4.515,8.9914 -7.582,9.96485 -1.8132,0.57549 -1.5628,0.89199 1.9765,2.47656 5.5201,2.47145 7.5322,6.54649 6.9825,14.14648 -0.5041,6.96871 -2.6356,10.28575 -8.8829,13.82617 -4.2979,2.43573 -5.0023,2.50815 -27.4257,2.81446 l -23.0157,0.3125 -2.2558,-2.40039 -2.2559,-2.40039 -5.0312,2.49023 c -6.1851,3.06094 -17.4683,3.94709 -23.168,1.82031 -9.1255,-3.40511 -12.7519,-8.13514 -12.7519,-16.63672 0,-6.33611 2.005,-10.32993 7.3144,-14.5664 l 3.4805,-2.77735 -2.5508,-3.85351 c -1.5415,-2.32944 -2.7383,-5.82051 -3.0274,-8.82813 l -0.4785,-4.97461 h -6.873 -6.8731 v 25.5 25.5 h -6.5 -6.5 v -25.5 -25.5 h -8.5 -8.5 v -5.57812 z" /></g></g></g></svg>
