<?xml version="1.0" encoding="UTF-8" standalone="no"?>
<!-- Created with Inkscape (http://www.inkscape.org/) -->

<svg
   width="180"
   height="180"
   viewBox="0 0 180 180"
   version="1.1"
   id="svg5"
   inkscape:version="1.2.2 (b0a8486, 2022-12-01)"
   sodipodi:docname="eternal_poth_and_logo.svg"
   xml:space="preserve"
   inkscape:export-filename="eternal.png"
   inkscape:export-xdpi="408.61142"
   inkscape:export-ydpi="408.61142"
   xmlns:inkscape="http://www.inkscape.org/namespaces/inkscape"
   xmlns:sodipodi="http://sodipodi.sourceforge.net/DTD/sodipodi-0.dtd"
   xmlns="http://www.w3.org/2000/svg"
   xmlns:svg="http://www.w3.org/2000/svg"><sodipodi:namedview
     id="namedview7"
     pagecolor="#ffffff"
     bordercolor="#000000"
     borderopacity="0.25"
     inkscape:showpageshadow="2"
     inkscape:pageopacity="0.0"
     inkscape:pagecheckerboard="false"
     inkscape:deskcolor="#d1d1d1"
     inkscape:document-units="px"
     showgrid="false"
     showguides="false"
     inkscape:zoom="0.4341195"
     inkscape:cx="-4640.4274"
     inkscape:cy="1360.2245"
     inkscape:window-width="1346"
     inkscape:window-height="672"
     inkscape:window-x="10"
     inkscape:window-y="48"
     inkscape:window-maximized="1"
     inkscape:current-layer="layer1" /><defs
     id="defs2"><linearGradient
       id="linearGradient6037"
       inkscape:swatch="solid"><stop
         style="stop-color:#ffffff;stop-opacity:1;"
         offset="0"
         id="stop6035" /></linearGradient><linearGradient
       id="linearGradient5003"
       inkscape:swatch="solid"><stop
         style="stop-color:#ffd700;stop-opacity:1;"
         offset="0"
         id="stop5001" /></linearGradient><linearGradient
       id="linearGradient2967"
       inkscape:swatch="gradient"><stop
         style="stop-color:#ffd700;stop-opacity:1;"
         offset="0"
         id="stop2963" /><stop
         style="stop-color:#ffd700;stop-opacity:0;"
         offset="1"
         id="stop2965" /></linearGradient></defs><g
     inkscape:label="Camada 1"
     inkscape:groupmode="layer"
     id="layer1"
     transform="translate(2968.9752,-758.86863)"><g
       id="g759"
       transform="matrix(0.75508617,0,0,0.75508654,-674.55739,476.63385)"
       inkscape:export-filename="../tech_logo.svg"
       inkscape:export-xdpi="805.42474"
       inkscape:export-ydpi="805.42474"
       style="stroke-width:1.32435"><rect
         style="fill:#59503a;fill-opacity:1;fill-rule:evenodd;stroke-width:1.32435"
         id="rect751"
         width="80.459923"
         height="238.38327"
         x="-2963.8193"
         y="373.77814" /><rect
         style="fill:#d9a521;fill-opacity:1;fill-rule:evenodd;stroke-width:1.32435"
         id="rect753"
         width="74.797829"
         height="238.38327"
         x="-3038.6172"
         y="373.77814" /><rect
         style="fill:#405294;fill-opacity:1;fill-rule:evenodd;stroke-width:1.32435"
         id="rect755"
         width="68.27623"
         height="238.38327"
         x="-2885.8911"
         y="373.77814" /><path
         style="fill:#000000;stroke-width:1.32435"
         d="M -3038.6171,492.96978 V 373.77814 h 119.1916 119.1917 v 119.19164 119.19163 h -119.1917 -119.1916 z m 123.0669,38.16363 6.6641,-3.29804 2.9874,3.17991 2.9874,3.17993 30.4802,-0.41635 c 29.6966,-0.40566 30.6304,-0.50148 36.3225,-3.72724 8.2736,-4.68878 11.0958,-9.08177 11.7634,-18.31079 0.728,-10.06507 -1.9354,-15.46179 -9.246,-18.73486 -4.6872,-2.09853 -5.0203,-2.51544 -2.619,-3.27759 4.0618,-1.28919 9.0345,-7.82455 10.0427,-13.19872 2.1682,-11.55745 -4.5122,-20.76399 -16.7634,-23.10244 -3.8531,-0.73545 -43.8078,-1.71262 -89.407,-2.18662 l -82.4409,-0.85697 v 7.38738 7.38738 h 11.257 11.257 v 33.77097 33.77096 h 8.6083 8.6083 v -33.77096 -33.77097 h 9.1019 9.102 l 0.6331,6.5892 c 0.3828,3.98315 1.9689,8.60762 4.0104,11.69261 l 3.3773,5.1034 -4.6086,3.6773 c -7.0315,5.61059 -9.6871,10.89855 -9.6871,19.2898 0,11.25908 4.8022,17.52473 16.8876,22.0343 7.5484,2.81661 22.4902,1.64217 30.6814,-2.41159 z m 23.609,-7.37246 -6.1871,-6.29067 3.7088,-5.95958 c 2.0399,-3.27777 4.9644,-9.23736 6.499,-13.24352 l 2.7902,-7.28393 0.069,19.53418 c 0.038,10.7438 -0.1024,19.53419 -0.3119,19.53419 -0.2095,0 -3.1651,-2.8308 -6.568,-6.29067 z m -48.4628,-5.09996 c -4.6004,-3.22225 -5.8347,-7.77911 -3.5731,-13.19184 3.1352,-7.50346 5.2813,-7.18618 14.7289,2.17745 4.6741,4.63254 8.4984,8.82869 8.4984,9.32478 0,1.40372 -7.8844,3.80978 -12.4843,3.80978 -2.2786,0 -5.5051,-0.95408 -7.1699,-2.12017 z m 72.6282,-9.94375 v -10.73956 l 9.8155,0.49566 c 11.9355,0.60271 15.3472,2.9364 15.3472,10.49779 0,7.57948 -4.4541,10.48568 -16.0708,10.48568 h -9.0919 z m -50.1718,-9.63245 -7.04,-7.1285 7.2569,-7.10828 c 6.1552,-6.02914 7.3939,-8.06329 8.1596,-13.39895 l 0.9027,-6.29067 h 11.8381 11.838 v 10.59482 10.59481 l -7.615,10e-4 -7.6151,10e-4 -4.4651,9.93119 c -2.4559,5.46213 -4.8601,9.93117 -5.3427,9.93117 -0.4826,0 -4.0454,-3.20783 -7.9174,-7.1285 z m 50.1718,-23.99376 v -8.60829 h 9.2705 c 10.3666,0 14.5679,2.48258 14.5679,8.60829 0,6.12571 -4.2013,8.60828 -14.5679,8.60828 h -9.2705 z m -70.8188,2.05229 c -4.04,-7.81249 -1.901,-11.98493 6.1439,-11.98493 8.1501,0 9.2802,5.16625 2.6796,12.25025 -4.3346,4.65203 -6.3113,4.59259 -8.8235,-0.26532 z"
         id="path757"
         inkscape:export-filename="techboladas.png"
         inkscape:export-xdpi="96"
         inkscape:export-ydpi="96" /></g></g></svg>
